<svg width="23" xmlns="http://www.w3.org/2000/svg" height="23" id="screenshot-ad931833-0e2b-80d7-8007-70765effb2d9" viewBox="885 182 23 23" xmlns:xlink="http://www.w3.org/1999/xlink" fill="none" version="1.1"><g id="shape-ad931833-0e2b-80d7-8007-70765effb2d9"><g class="fills" id="fills-ad931833-0e2b-80d7-8007-70765effb2d9"><path d="M896.5,189.43280029296875C894.2537841796875,189.43280029296875,892.4328002929688,191.2537841796875,892.4328002929688,193.5C892.4328002929688,195.7462158203125,894.2537841796875,197.56719970703125,896.5,197.56719970703125C898.7462768554688,197.56719970703125,900.5671997070312,195.7462158203125,900.5671997070312,193.5C900.5671997070312,191.2537841796875,898.7462768554688,189.43280029296875,896.5,189.43280029296875M896.5,199.60079956054688C893.130615234375,199.60079956054688,890.399169921875,196.869384765625,890.399169921875,193.5C890.399169921875,190.130615234375,893.130615234375,187.39920043945312,896.5,187.39920043945312C899.869384765625,187.39920043945312,902.6007690429688,190.130615234375,902.6007690429688,193.5C902.6007690429688,196.869384765625,899.869384765625,199.60079956054688,896.5,199.60079956054688M904.6343994140625,190.13433837890625L904.6343994140625,185.3656005859375L899.8656005859375,185.3656005859375L896.5,182L893.1343994140625,185.3656005859375L888.3656005859375,185.3656005859375L888.3656005859375,190.13433837890625L885,193.5L888.3656005859375,196.86566162109375L888.3656005859375,201.6343994140625L893.1343994140625,201.6343994140625L896.5,205.00006103515625L899.8656005859375,201.6343994140625L904.6343994140625,201.6343994140625L904.6343994140625,196.86566162109375L908,193.5L904.6343994140625,190.13433837890625Z" style="fill: rgb(255, 255, 255); fill-opacity: 1;"/></g></g></svg>