<svg width="22" xmlns="http://www.w3.org/2000/svg" height="20" id="screenshot-ad931833-0e2b-80d7-8007-70785b077807" viewBox="886 221 22 20" xmlns:xlink="http://www.w3.org/1999/xlink" fill="none" version="1.1"><g id="shape-ad931833-0e2b-80d7-8007-70785b077807"><g class="fills" id="fills-ad931833-0e2b-80d7-8007-70785b077807"><path d="M899.25,231L901.2699584960938,229.97959899902344L908,229.97959899902344L907,227.93878173828125L903.0299682617188,227.93878173828125L905.4199829101562,224.70216369628906L904.4299926757812,222.66134643554688L900.3699951171875,228.1460418701172L898.3499755859375,229.17442321777344L898.75,226.91836547851562L902.8299560546875,221.4257049560547L900.6400146484375,221.01913452148438L897,225.89796447753906L893.3999633789062,221.00318908691406L891.2000122070312,221.40975952148438L895.260009765625,226.91836547851562L895.6599731445312,229.17442321777344L893.8200073242188,228.23373413085938L893.6599731445312,228.15402221679688L889.5999755859375,222.6294708251953L888.5999755859375,224.6702880859375L891,227.93878173828125L887,227.93878173828125L886,229.97959899902344L892.7699584960938,229.97959899902344L894.75,231L892.72998046875,232.02040100097656L886,232.02040100097656L887,234.06121826171875L890.969970703125,234.06121826171875L888.5799560546875,237.29783630371094L889.5700073242188,239.33865356445312L893.6300048828125,233.8539581298828L895.6499633789062,232.82557678222656L895.25,235.08163452148438L891.1699829101562,240.5742950439453L893.3599853515625,240.9888458251953L897,236.10203552246094L900.5999755859375,240.99681091308594L902.7999877929688,240.59024047851562L898.739990234375,235.08163452148438L898.3399658203125,232.82557678222656L900.3399658203125,233.84597778320312L904.3999633789062,239.3705291748047L905.3999633789062,237.3297119140625L903,234.06121826171875L907,234.06121826171875L908,232.02040100097656L901.22998046875,232.02040100097656" style="fill: rgb(255, 255, 255); fill-opacity: 1;"/></g></g></svg>