<svg width="23" xmlns="http://www.w3.org/2000/svg" height="23" id="screenshot-ad931833-0e2b-80d7-8007-70765effb2d8" viewBox="568 182 23 23" xmlns:xlink="http://www.w3.org/1999/xlink" fill="none" version="1.1"><g id="shape-ad931833-0e2b-80d7-8007-70765effb2d8"><g class="fills" id="fills-ad931833-0e2b-80d7-8007-70765effb2d8"><path d="M579.5,199.60079956054688C576.130615234375,199.60079956054688,573.3992309570312,196.87013244628906,573.3992309570312,193.5C573.3992309570312,190.12986755371094,576.130615234375,187.39920043945312,579.5,187.39920043945312C582.869384765625,187.39920043945312,585.6007690429688,190.12986755371094,585.6007690429688,193.5C585.6007690429688,196.87013244628906,582.869384765625,199.60079956054688,579.5,199.60079956054688M587.6343994140625,196.8661651611328L591,193.5L587.6343994140625,190.1338348388672L587.6343994140625,185.3656005859375L582.8656005859375,185.3656005859375L579.5,181.99945068359375L576.1343994140625,185.3656005859375L571.3656005859375,185.3656005859375L571.3656005859375,190.1338348388672L568,193.5L571.3656005859375,196.8661651611328L571.3656005859375,201.6343994140625L576.1343994140625,201.6343994140625L579.5,205.00054931640625L582.8656005859375,201.6343994140625L587.6343994140625,201.6343994140625L587.6343994140625,196.8661651611328Z" style="fill: rgb(255, 255, 255); fill-opacity: 1;"/></g></g></svg>