<svg width="14" xmlns="http://www.w3.org/2000/svg" height="18" id="screenshot-ad931833-0e2b-80d7-8007-70786b9043da" viewBox="571 222 14 18" xmlns:xlink="http://www.w3.org/1999/xlink" fill="none" version="1.1"><g id="shape-ad931833-0e2b-80d7-8007-70786b9043da"><g class="fills" id="fills-ad931833-0e2b-80d7-8007-70786b9043da"><path d="M583.669921875,230.19944763183594C583.43994140625,229.89866638183594,583.1599731445312,229.64083862304688,582.9000244140625,229.37911987304688C582.2301025390625,228.7814483642578,581.4703369140625,228.35174560546875,580.8304443359375,227.7189178466797C579.3407592773438,226.2618408203125,579.0107421875,223.8516082763672,579.9606323242188,222C579.0107421875,222.23046875,578.180908203125,222.75001525878906,577.4710693359375,223.32034301757812C574.8815307617188,225.39852905273438,573.8616943359375,229.0705108642578,575.08154296875,232.2190399169922C575.1214599609375,232.3206024169922,575.1614990234375,232.4221649169922,575.1614990234375,232.55108642578125C575.1614990234375,232.76983642578125,575.0115356445312,232.9690704345703,574.8115234375,233.0511016845703C574.5816040039062,233.1487579345703,574.3416748046875,233.0901641845703,574.1516723632812,232.92999267578125C574.0917358398438,232.87921142578125,574.0516967773438,232.82843017578125,574.01171875,232.76202392578125C572.8818969726562,231.32838439941406,572.7019653320312,229.28146362304688,573.4617919921875,227.6407928466797C571.7921142578125,229.0001983642578,570.8822631835938,231.30104064941406,571.0122680664062,233.4690704345703C571.072265625,233.96908569335938,571.1322021484375,234.46910095214844,571.3021850585938,234.9691162109375C571.442138671875,235.57069396972656,571.712158203125,236.1722869873047,572.0120849609375,236.6996307373047C573.0919189453125,238.43016052246094,574.9615478515625,239.67237854003906,576.97119140625,239.92239379882812C579.1106567382812,240.19192504882812,581.4003295898438,239.80128479003906,583.0400390625,238.32078552246094C584.86962890625,236.6605682373047,585.509521484375,234.00033569335938,584.5697631835938,231.71902465820312L584.4397583007812,231.46121215820312C584.229736328125,231.00025939941406,583.669921875,230.19944763183594,583.669921875,230.19944763183594M580.5104370117188,236.5004119873047C580.23046875,236.73870849609375,579.7706298828125,237.00042724609375,579.4107055664062,237.10198974609375C578.2909545898438,237.5004425048828,577.1710815429688,236.94183349609375,576.51123046875,236.2816619873047C577.7010498046875,236.00039672851562,578.4109497070312,235.12147521972656,578.6207885742188,234.23081970214844C578.790771484375,233.4300079345703,578.4708862304688,232.76983642578125,578.3409423828125,232.0002899169922C578.220947265625,231.26197814941406,578.2409057617188,230.629150390625,578.5108032226562,229.94163513183594C578.7008666992188,230.320556640625,578.9007568359375,230.699462890625,579.1406860351562,231.00025939941406C579.9105834960938,232.0002899169922,581.1203002929688,232.44171142578125,581.3803100585938,233.80111694335938C581.4203491210938,233.94174194335938,581.4403076171875,234.07847595214844,581.4403076171875,234.23081970214844C581.4703369140625,235.0511474609375,581.1102905273438,235.94961547851562,580.5104370117188,236.5004119873047L580.5104370117188,236.5004119873047Z" style="fill: rgb(255, 255, 255); fill-opacity: 1;"/></g></g></svg>